<?xml version="1.0" encoding="utf-8"?>
<svg width="124" height="124" viewBox="0 0 124 124" fill="none" xmlns="http://www.w3.org/2000/svg">
  <defs>
    <clipPath id="clip_path_1">
      <rect width="124" height="124" />
    </clipPath>
  </defs>
  <g clip-path="url(#clip_path_1)">
    <rect width="250" height="250" fill="#006BB8" fill-rule="evenodd" transform="translate(-63 -63)" />
    <g transform="translate(10 23)">
      <path d="M67.4372 27.2603L51.4104 27.2603C50.8005 23.1377 49.0441 19.8994 46.1412 17.5454C43.2384 15.1914 39.6159 14.0144 35.2737 14.0144C29.468 14.0144 24.8148 16.1427 21.3143 20.3995C17.8137 24.6562 16.0634 30.6876 16.0634 38.4937C16.0634 46.495 17.8259 52.5751 21.3508 56.7343C24.8758 60.8935 29.4801 62.9731 35.1639 62.9731C39.3841 62.9731 42.9578 61.8693 45.8851 59.6616C48.8124 57.4539 50.6541 54.3498 51.4104 50.3492L67.4372 50.4224C66.8761 55.0084 65.2417 59.3262 62.534 63.3756C59.8263 67.425 56.1489 70.706 51.5018 73.2186C46.8548 75.7311 41.3234 76.9874 34.9078 76.9874C28.2239 76.9874 22.2534 75.475 16.9965 72.4502C11.7396 69.4253 7.59263 65.0466 4.55558 59.314C1.51853 53.5814 -4.16385e-07 46.6413 0 38.4937C-4.16385e-07 30.3217 1.53682 23.3694 4.61047 17.6369C7.68411 11.9043 11.8555 7.53164 17.1246 4.51899C22.3937 1.50633 28.3214 6.66216e-06 34.9078 0C40.6892 6.66216e-06 45.9034 1.06724 50.5505 3.20171C55.1975 5.33619 59.003 8.43422 61.9669 12.4958C64.9307 16.5574 66.7542 21.4789 67.4372 27.2603L67.4372 27.2603Z" fill="#FFFFFF" fill-rule="evenodd" transform="scale(1 1)" />
      <path d="M11.9083 23.7159C8.63367 23.7159 5.82217 22.5583 3.47372 20.2429C1.12528 17.9275 -0.0323944 15.116 0.000686646 11.8084C-0.0323944 8.56686 1.12528 5.78841 3.47372 3.47305C5.82217 1.15768 8.63367 0 11.9083 0C15.0836 0 17.8538 1.15768 20.2188 3.47305C22.5837 5.78841 23.7828 8.56686 23.8158 11.8084C23.7828 15.116 22.5837 17.9275 20.2188 20.2429C17.8538 22.5583 15.0836 23.7159 11.9083 23.7159L11.9083 23.7159Z" fill="#1C1A21" fill-rule="evenodd" transform="matrix(1 0 0 1 81.184 53.536)" />
    </g>
  </g>
</svg>